<svg width="481" height="483" viewBox="0 0 481 483" fill="none" xmlns="http://www.w3.org/2000/svg">
<path opacity="0.2" d="M412.783 243.07C415.778 309.964 378.52 371.574 317.932 399.964C313.767 401.901 308.768 400.124 306.831 395.959C304.894 391.794 306.675 386.879 310.836 384.859C365.382 359.323 398.832 303.887 396.139 243.732C392.477 161.946 322.94 98.4478 241.236 102.106C159.533 105.764 95.9518 175.305 99.6098 257.008C100.716 281.719 107.964 305.821 120.661 326.845C123.003 330.742 121.732 335.884 117.839 338.31C113.859 340.655 108.8 339.381 106.375 335.488C92.2394 312.111 84.1988 285.21 82.9696 257.753C78.8981 166.814 149.552 89.5371 240.491 85.4656C331.43 81.3941 408.708 152.048 412.779 242.987L412.783 243.07Z" fill="#FCBA02"></path>
<path opacity="0.4" d="M260.014 362.486C212.378 369.254 165.737 346.866 141.243 305.495C139.569 302.65 140.495 298.952 143.34 297.279C146.185 295.605 149.823 296.539 151.556 299.376C173.591 336.623 215.553 356.714 258.39 350.628C316.632 342.354 357.239 288.229 348.974 230.046C340.708 171.863 286.575 131.197 228.392 139.463C210.795 141.963 194.058 148.813 179.899 159.347C177.274 161.292 173.508 160.739 171.504 158.122C169.551 155.438 170.113 151.731 172.729 149.727C188.472 138.001 207.156 130.39 226.709 127.613C291.468 118.413 351.624 163.603 360.824 228.363C370.023 293.123 324.833 353.278 260.074 362.478L260.014 362.486Z" fill="#FCBA02"></path>
<path opacity="0.1" d="M100.983 425.507C25.4706 368.78 -8.19214 272.968 15.2324 181.548C16.8584 175.276 23.2753 171.428 29.547 173.054C35.8187 174.68 39.5728 181.026 38.0407 187.368C16.9257 269.652 47.2833 355.782 115.189 406.793C207.513 476.15 339.001 457.387 408.287 365.156C477.573 272.925 458.88 141.343 366.649 72.0574C338.755 51.1023 306.014 37.3797 271.74 32.3487C265.398 31.404 260.939 25.4095 261.789 18.9962C262.805 12.5596 268.729 8.19433 275.142 9.04513C313.268 14.6195 349.766 29.9897 380.76 53.2731C483.416 130.391 504.189 276.611 427.071 379.267C349.954 481.923 203.734 502.695 101.077 425.578L100.983 425.507Z" fill="#FCBA02"></path>
</svg>