<svg width="1010" height="218" viewBox="0 0 1010 218" fill="none" xmlns="http://www.w3.org/2000/svg">
<path d="M902.853 114.074C918.505 114.074 931.194 101.385 931.194 85.7328C931.194 70.0806 918.505 57.392 902.853 57.392C887.201 57.392 874.512 70.0806 874.512 85.7328C874.512 101.385 887.201 114.074 902.853 114.074Z" fill="#51A0AD"></path>
<path d="M902.853 115.779C886.295 115.779 872.809 102.314 872.809 85.7342C872.809 69.1542 886.273 55.6899 902.853 55.6899C919.433 55.6899 932.898 69.1542 932.898 85.7342C932.898 102.314 919.433 115.779 902.853 115.779ZM902.853 57.9154C887.519 57.9154 875.034 70.4005 875.034 85.7342C875.034 101.068 887.519 113.553 902.853 113.553C918.187 113.553 930.672 101.068 930.672 85.7342C930.672 70.4005 918.187 57.9154 902.853 57.9154Z" fill="#110F2B"></path>
<path d="M932.898 85.7338C932.898 69.154 919.433 55.6899 902.853 55.6899C886.273 55.6901 872.809 69.1541 872.809 85.7338C872.809 102.055 885.877 115.357 902.079 115.769L902.853 115.779C919.174 115.779 932.476 102.732 932.888 86.5092L932.898 85.7338ZM929.728 85.7338C929.728 70.9218 917.665 58.8598 902.853 58.8598C888.041 58.86 875.979 70.9219 875.979 85.7338C875.979 100.546 888.041 112.609 902.853 112.609V113.553L902.137 113.544C887.371 113.169 875.419 101.217 875.043 86.4506L875.034 85.7338C875.035 70.4004 887.519 57.9157 902.853 57.9155L903.57 57.9243C918.574 58.3059 930.672 70.6398 930.672 85.7338L930.663 86.4506C930.282 101.455 917.947 113.553 902.853 113.553V112.609C917.665 112.609 929.728 100.546 929.728 85.7338ZM933.842 85.7338C933.842 102.835 919.954 116.723 902.853 116.723C885.774 116.723 871.865 102.836 871.865 85.7338C871.865 68.6326 885.752 54.7458 902.853 54.7455C919.954 54.7455 933.842 68.6324 933.842 85.7338Z" fill="#110F2B"></path>
<path d="M902.854 100.176C910.83 100.176 917.295 93.7101 917.295 85.7345C917.295 77.7588 910.83 71.2933 902.854 71.2933C894.878 71.2933 888.413 77.7588 888.413 85.7345C888.413 93.7101 894.878 100.176 902.854 100.176Z" fill="#110F2B"></path>
<path d="M912.196 81.5601C915.038 81.5601 917.341 79.2567 917.341 76.4154C917.341 73.5741 915.038 71.2707 912.196 71.2707C909.355 71.2707 907.052 73.5741 907.052 76.4154C907.052 79.2567 909.355 81.5601 912.196 81.5601Z" fill="white"></path>
<path d="M917.341 76.4153C917.341 73.574 915.038 71.2707 912.196 71.2707C909.355 71.2708 907.052 73.574 907.052 76.4153C907.052 79.2565 909.355 81.5597 912.196 81.5598C915.038 81.5598 917.341 79.2566 917.341 76.4153ZM919.509 76.4153C919.509 80.4539 916.235 83.7278 912.196 83.7278C908.158 83.7277 904.884 80.4539 904.884 76.4153C904.884 72.3767 908.158 69.1028 912.196 69.1028C916.235 69.1028 919.509 72.3767 919.509 76.4153Z" fill="#110F2B"></path>
<path d="M902.785 132.342C883.88 132.342 866.973 121.055 859.731 103.607C859.237 102.408 859.801 101.021 861 100.527C862.2 100.033 863.563 100.598 864.081 101.797C870.594 117.504 885.808 127.639 902.809 127.639C925.923 127.639 944.711 108.828 944.711 85.7365C944.711 62.6455 925.9 43.834 902.809 43.834C895.825 43.834 888.935 45.5741 882.845 48.8896C881.716 49.501 880.282 49.0777 879.647 47.949C879.036 46.7968 879.459 45.386 880.588 44.7511C887.36 41.0593 895.049 39.1312 902.809 39.1312C928.51 39.1312 949.414 60.0354 949.414 85.7365C949.414 111.438 928.51 132.342 902.809 132.342H902.785Z" fill="#110F2B"></path>
<path d="M949.414 85.7366C949.414 60.2363 928.835 39.4582 903.41 39.1351L902.809 39.1312C895.049 39.1312 887.36 41.0596 880.588 44.7513C879.459 45.3861 879.036 46.7964 879.648 47.9485C880.243 49.0066 881.54 49.4455 882.63 48.9925L882.845 48.89C888.935 45.5744 895.825 43.8343 902.809 43.8343L903.888 43.848C926.483 44.4231 944.711 63.0064 944.711 85.7366L944.697 86.8157C944.123 109.411 925.562 127.639 902.809 127.639V126.641C925.372 126.641 943.713 108.277 943.713 85.7366C943.713 63.1967 925.349 44.8314 902.809 44.8314C895.99 44.8314 889.265 46.5311 883.322 49.7659L883.32 49.7669C881.704 50.6425 879.675 50.0327 878.778 48.4378L878.766 48.4163C877.899 46.7819 878.502 44.7793 880.099 43.8812L880.111 43.8753C887.032 40.1022 894.885 38.1331 902.809 38.1331C929.061 38.1331 950.412 59.4844 950.412 85.7366C950.412 111.989 929.061 133.339 902.809 133.339H902.785C883.477 133.339 866.206 121.81 858.809 103.99L858.808 103.988C858.108 102.288 858.903 100.312 860.62 99.6048C862.278 98.9222 864.147 99.6615 864.925 101.245L864.997 101.402L865.002 101.414C871.361 116.748 886.21 126.641 902.809 126.641V127.639L902.013 127.631C885.599 127.325 870.964 117.576 864.393 102.529L864.08 101.797C863.563 100.598 862.199 100.033 861 100.527C859.801 101.02 859.237 102.409 859.731 103.608C866.86 120.783 883.354 131.987 901.901 132.333L902.785 132.342H902.809L903.41 132.338C928.635 132.018 949.09 111.563 949.41 86.3382L949.414 85.7366Z" fill="#110F2B"></path>
<path d="M980.607 119.625C979.997 119.625 979.388 119.377 978.937 118.903C978.102 117.978 978.147 116.557 979.072 115.722C979.275 115.519 1000.12 96.2938 1004.03 86.2075C1004.1 84.6506 999.674 76.3695 988.91 65.1324C953.71 28.3976 918.758 25.2837 905.422 25.6673C883.806 26.2766 867.153 34.4449 855.939 49.9466C846.868 62.4924 843.596 77.1141 843.573 85.8239C843.573 87.065 842.558 88.0804 841.317 88.0804C840.076 88.0804 839.06 87.065 839.06 85.8239C839.106 69.5099 851.403 22.6663 905.287 21.1545C906.054 21.1545 906.821 21.1319 907.611 21.1319C949.716 21.1319 987.624 53.083 1003.06 74.9705C1009.62 84.2895 1008.61 86.9521 1008.27 87.8096C1003.98 98.8887 983.044 118.204 982.141 119.016C981.712 119.422 981.171 119.603 980.607 119.603V119.625Z" fill="#110F2B"></path>
<path d="M907.611 20.1749C928.903 20.1749 949.085 28.25 965.854 39.0381C982.099 49.4889 995.207 62.527 1003.09 73.376L1003.84 74.419L1004.44 75.2813C1007.33 79.5024 1008.65 82.3507 1009.18 84.3126C1009.46 85.3671 1009.53 86.1826 1009.48 86.8262C1009.43 87.4762 1009.26 87.9049 1009.16 88.1544C1008.04 91.053 1005.86 94.425 1003.27 97.8262C1000.66 101.241 997.591 104.745 994.638 107.915C988.799 114.182 983.375 119.189 982.799 119.71L982.8 119.711C982.431 120.061 982.007 120.288 981.564 120.42V120.583H980.606C979.739 120.583 978.878 120.229 978.244 119.564L978.234 119.555L978.226 119.545C977.052 118.244 977.097 116.214 978.431 115.011C978.917 114.551 983.953 109.879 989.465 104.015C992.317 100.98 995.273 97.6495 997.755 94.4581C1000.18 91.3377 1002.1 88.4119 1003.05 86.0596C1003.05 86.0519 1003.05 86.0429 1003.05 86.0342C1003.03 85.9335 1002.99 85.798 1002.93 85.6251C1002.82 85.278 1002.62 84.8215 1002.35 84.2589C1001.8 83.1356 1000.94 81.6402 999.734 79.8301C997.326 76.2126 993.566 71.3773 988.219 65.795C953.246 29.2981 918.58 26.2465 905.45 26.6241H905.449C884.086 27.2262 867.73 35.2812 856.715 50.5079C847.772 62.8761 844.553 77.2978 844.531 85.8262C844.53 87.5949 843.086 89.0379 841.317 89.0381C839.548 89.0381 838.104 87.594 838.103 85.8243V85.8214C838.126 77.4931 841.259 61.506 851.201 47.3868C861.178 33.2188 877.995 20.9624 905.26 20.1973H905.287C905.662 20.1973 906.039 20.1913 906.427 20.1856C906.812 20.18 907.208 20.1749 907.611 20.1749ZM839.06 85.8243C839.061 86.9875 839.953 87.9522 841.087 88.0684L841.317 88.0801C842.481 88.0799 843.445 87.1878 843.561 86.0538L843.573 85.8243C843.596 77.1144 846.867 62.4921 855.938 49.9464C867.153 34.4448 883.805 26.2764 905.422 25.6671C918.757 25.2835 953.71 28.3981 988.91 65.1329C999.672 76.3689 1004.1 84.6491 1004.03 86.2071C1000.12 96.2934 979.275 115.519 979.072 115.722C978.147 116.557 978.103 117.978 978.937 118.903C979.389 119.377 979.997 119.625 980.606 119.625V119.603C981.17 119.603 981.713 119.422 982.141 119.016C983.05 118.197 1003.98 98.8869 1008.27 87.8096C1008.61 86.9522 1009.62 84.2896 1003.06 74.9708C987.745 53.2542 950.307 21.6303 908.597 21.1378L907.611 21.1319C906.822 21.1319 906.054 21.1544 905.287 21.1544C851.403 22.6662 839.106 69.5102 839.06 85.8243Z" fill="#110F2B"></path>
<path d="M900.235 150.447C858.13 150.447 820.221 118.496 804.787 96.6082C798.221 87.2891 799.259 84.6491 799.598 83.769C803.885 72.7125 824.825 53.3749 825.727 52.5625C826.652 51.7051 828.074 51.7728 828.909 52.6979C829.744 53.6231 829.699 55.0446 828.773 55.8795C828.57 56.0826 807.721 75.3074 803.817 85.3937C803.75 86.9506 808.15 95.2317 818.913 106.446C854.136 143.181 889.11 146.295 902.423 145.889C924.04 145.279 940.693 137.111 951.907 121.609C960.978 109.064 964.25 94.442 964.272 85.7321C964.272 84.4911 965.288 83.4757 966.529 83.4757C967.77 83.4757 968.785 84.4911 968.785 85.7321C968.74 102.024 956.443 148.867 902.536 150.379C901.769 150.379 901.002 150.402 900.235 150.402V150.447Z" fill="#110F2B"></path>
<path d="M825.076 51.86C826.392 50.6406 828.426 50.7344 829.619 52.0563C830.794 53.3577 830.749 55.3868 829.415 56.5904L829.414 56.5895C828.927 57.0496 823.892 61.7223 818.381 67.5865C815.529 70.621 812.573 73.9518 810.091 77.1432C807.664 80.2641 805.743 83.1901 804.79 85.5426C804.792 85.5504 804.792 85.5593 804.794 85.568C804.815 85.6688 804.853 85.8042 804.911 85.9772C805.029 86.3242 805.22 86.781 805.494 87.3434C806.042 88.466 806.899 89.96 808.101 91.7682C810.503 95.3824 814.257 100.212 819.604 105.783V105.784C854.599 142.281 889.288 145.331 902.394 144.931H902.397C923.76 144.329 940.116 136.275 951.131 121.048L951.546 120.467C960.173 108.231 963.293 94.1254 963.315 85.7301C963.316 83.9613 964.76 82.5183 966.529 82.5182C968.298 82.5182 969.742 83.9622 969.742 85.732V85.735C969.719 94.0521 966.587 110.033 956.642 124.149C946.662 138.314 929.839 150.572 902.563 151.337H902.536C902.161 151.337 901.784 151.342 901.4 151.347C901.331 151.348 901.262 151.348 901.193 151.349V151.404H900.235C878.943 151.404 858.761 143.329 841.991 132.541C825.746 122.09 812.638 109.052 804.752 98.2027L804.005 97.1598C800.694 92.4599 799.24 89.3633 798.679 87.2721C798.396 86.2177 798.335 85.4022 798.388 84.7574C798.442 84.1023 798.61 83.6702 798.704 83.4254L798.705 83.4225C799.827 80.5298 802.006 77.162 804.601 73.7623C807.207 70.3481 810.277 66.8433 813.231 63.6715C819.096 57.3736 824.542 52.3437 825.076 51.8609V51.86ZM828.908 52.6979C828.074 51.7729 826.652 51.7047 825.727 52.5621C824.824 53.3749 803.885 72.7127 799.598 83.7691L799.528 83.9557C799.159 85.0049 798.632 87.8715 804.787 96.608C820.101 118.324 857.538 149.948 899.248 150.441L900.235 150.447V150.402C900.618 150.402 901.002 150.396 901.386 150.39L902.536 150.379C956.443 148.867 968.74 102.023 968.785 85.732C968.785 84.491 967.77 83.4752 966.529 83.4752C965.288 83.4753 964.273 84.4911 964.273 85.732C964.25 94.4418 960.978 109.063 951.907 121.609L951.377 122.331C940.171 137.364 923.702 145.289 902.423 145.888C889.11 146.294 854.135 143.18 818.912 106.446C808.149 95.2316 803.75 86.9501 803.818 85.3932C807.722 75.3068 828.571 56.0826 828.774 55.8795C829.699 55.0446 829.743 53.623 828.908 52.6979Z" fill="#110F2B"></path>
<path d="M715.592 146.691C707.221 146.691 699.826 145.296 693.409 142.505C686.991 139.576 681.759 135.739 677.713 130.995C673.806 126.112 671.156 120.741 669.76 114.881L687.758 110.905C689.153 116.625 692.223 121.299 696.966 124.926C701.71 128.554 707.779 130.368 715.173 130.368C722.846 130.368 728.636 128.833 732.543 125.763C736.589 122.555 738.612 118.578 738.612 113.835C738.612 109.649 736.938 106.371 733.589 103.999C730.38 101.627 726.195 99.6739 721.033 98.1393C715.871 96.6046 710.36 95.0699 704.5 93.5352C698.78 92.0005 693.339 90.0473 688.177 87.6755C683.015 85.1642 678.829 81.8158 675.62 77.6304C672.411 73.4449 670.807 67.8642 670.807 60.8884C670.807 54.8892 672.551 49.5178 676.039 44.7743C679.527 39.8912 684.41 36.0545 690.688 33.2642C697.106 30.3343 704.57 28.8694 713.08 28.8694C721.033 28.8694 727.869 30.1948 733.589 32.8456C739.309 35.3569 743.913 38.8448 747.401 43.3094C751.029 47.7739 753.47 52.8662 754.726 58.5864L736.938 63.3997C735.682 58.2376 733.101 53.9126 729.194 50.4247C725.288 46.9368 719.707 45.1928 712.453 45.1928C705.337 45.1928 699.826 46.6577 695.92 49.5876C692.153 52.5174 690.269 56.2146 690.269 60.6791C690.269 65.1436 691.874 68.6316 695.083 71.1429C698.292 73.6541 702.407 75.7469 707.43 77.4211C712.592 78.9558 718.033 80.4904 723.753 82.0251C729.613 83.5598 735.054 85.513 740.077 87.8848C745.239 90.1171 749.424 93.3259 752.633 97.5114C755.842 101.557 757.446 106.999 757.446 113.835C757.446 119.834 755.703 125.345 752.215 130.368C748.866 135.39 744.053 139.366 737.775 142.296C731.496 145.226 724.102 146.691 715.592 146.691Z" fill="#110F2B"></path>
<path d="M599.435 146.691C590.505 146.691 582.274 145.296 574.74 142.505C567.346 139.715 560.928 135.809 555.487 130.786C550.046 125.624 545.86 119.485 542.93 112.37C540.001 105.255 538.536 97.3021 538.536 88.5126C538.536 79.8626 540.14 71.9102 543.349 64.6553C546.697 57.4005 551.162 51.1223 556.743 45.8206C562.463 40.3795 568.95 36.194 576.205 33.2642C583.599 30.3343 591.273 28.8694 599.225 28.8694C606.341 28.8694 612.828 29.846 618.688 31.7993C624.547 33.613 629.57 36.194 633.755 39.5424C638.08 42.8908 641.359 46.7275 643.591 51.0525C645.963 55.3775 647.149 60.1211 647.149 65.2832C647.149 72.538 645.126 78.607 641.08 83.49C637.034 88.2336 631.663 92.0005 624.966 94.7908C618.269 97.4417 610.875 99.3251 602.783 100.441C594.83 101.418 586.808 101.767 578.716 101.488C576.484 101.488 574.043 101.418 571.392 101.278C568.741 101.139 566.299 100.999 564.067 100.86C561.835 100.581 560.091 100.372 558.835 100.232C559.672 105.673 561.905 110.696 565.532 115.3C569.159 119.904 573.903 123.531 579.763 126.182C585.622 128.833 592.18 130.158 599.435 130.158C605.015 130.158 610.317 129.182 615.339 127.228C620.501 125.275 625.036 122.764 628.942 119.695C632.988 116.625 636.267 113.486 638.778 110.277L653.009 120.741C649.381 125.763 644.847 130.228 639.406 134.134C633.965 138.041 627.896 141.11 621.199 143.343C614.502 145.575 607.247 146.691 599.435 146.691ZM579.135 85.5828C584.716 85.5828 590.366 85.3037 596.086 84.7457C601.806 84.0481 607.108 83.0017 611.991 81.6066C616.874 80.0719 620.78 77.9791 623.71 75.3283C626.78 72.6775 628.314 69.3989 628.314 65.4924C628.314 61.586 627.059 58.1678 624.547 55.238C622.176 52.1686 618.827 49.7969 614.502 48.1227C610.317 46.309 605.573 45.4021 600.272 45.4021C592.319 45.4021 585.134 47.2856 578.716 51.0525C572.438 54.6799 567.416 59.4932 563.649 65.4924C560.021 71.4916 557.998 77.8396 557.58 84.5364C560.091 84.8154 563.16 85.0945 566.788 85.3735C570.555 85.513 574.67 85.5828 579.135 85.5828Z" fill="#110F2B"></path>
<path d="M496.632 147.109V30.3344H515.885V147.109C515.885 154.922 514.699 162.107 512.327 168.665C509.956 175.222 506.468 180.872 501.864 185.616C497.26 190.499 491.609 194.266 484.912 196.917C478.355 199.707 470.751 201.102 462.101 201.102C453.451 201.102 445.569 199.637 438.453 196.707C431.338 193.778 425.199 189.453 420.037 183.732C415.015 178.012 411.038 170.897 408.109 162.387L425.897 155.899C429.106 165.107 433.919 172.153 440.337 177.036C446.755 181.919 453.94 184.36 461.892 184.36C472.635 184.36 481.076 181.012 487.214 174.315C493.493 167.758 496.632 158.689 496.632 147.109ZM502.073 90.8146C501.933 101.418 500.468 110.207 497.678 117.183C495.027 124.159 491.539 129.67 487.214 133.716C483.029 137.622 478.425 140.413 473.402 142.087C468.38 143.622 463.357 144.389 458.334 144.389C449.266 144.389 441.313 142.436 434.477 138.529C427.641 134.483 422.339 128.833 418.572 121.578C414.945 114.323 413.131 105.673 413.131 95.628V30.3344H432.384V91.0239C432.384 102.743 435.314 111.812 441.174 118.23C447.173 124.508 454.847 127.647 464.194 127.647C470.472 127.647 476.053 125.973 480.936 122.624C485.959 119.136 489.795 114.463 492.446 108.603C495.237 102.604 496.632 95.6977 496.632 87.8848L502.073 90.8146Z" fill="#110F2B"></path>
<path d="M387.878 16.1037H328.862V64.0275H381.599V79.9324H328.862V129.321H387.878V145.226H309.609V0.198822H387.878V16.1037Z" fill="#110F2B"></path>
<path d="M231.131 145.226V30.3343H250.384V145.226H231.131ZM243.478 86.4199L250.384 55.8658C253.035 47.3553 257.639 40.7283 264.196 35.9847C270.754 31.2412 278.567 28.8694 287.635 28.8694V48.9598C286.519 48.6807 285.403 48.5412 284.287 48.5412C283.31 48.4017 282.334 48.3319 281.357 48.3319C275.358 48.3319 269.986 49.9364 265.243 53.1452C260.639 56.2146 257.011 60.6094 254.361 66.3295C251.71 71.9102 250.384 78.607 250.384 86.4199H243.478Z" fill="#110F2B"></path>
<path d="M149.329 146.691C138.447 146.691 128.681 144.319 120.031 139.576C111.381 134.693 104.545 127.856 99.5222 119.067C94.4996 110.138 91.9883 99.6739 91.9883 87.6755C91.9883 75.6771 94.5693 65.2832 99.7314 56.4936C104.894 47.7041 111.869 40.9376 120.659 36.194C129.448 31.311 139.215 28.8694 149.957 28.8694C160.84 28.8694 170.675 31.311 179.465 36.194C188.255 40.9376 195.161 47.7041 200.183 56.4936C205.345 65.2832 207.926 75.6771 207.926 87.6755C207.926 99.6739 205.275 110.138 199.974 119.067C194.812 127.856 187.766 134.693 178.837 139.576C170.048 144.319 160.212 146.691 149.329 146.691ZM149.329 129.949C155.887 129.949 162.095 128.414 167.955 125.345C173.954 122.276 178.837 117.602 182.604 111.324C186.371 105.045 188.254 97.1626 188.254 87.6755C188.254 78.1884 186.371 70.3755 182.604 64.2368C178.977 57.9586 174.233 53.2848 168.373 50.2154C162.514 47.1461 156.305 45.6114 149.748 45.6114C143.051 45.6114 136.773 47.1461 130.913 50.2154C125.193 53.2848 120.519 57.9586 116.892 64.2368C113.404 70.3755 111.66 78.1884 111.66 87.6755C111.66 97.1626 113.404 105.045 116.892 111.324C120.38 117.602 124.984 122.276 130.704 125.345C136.424 128.414 142.633 129.949 149.329 129.949Z" fill="#110F2B"></path>
<path d="M0.193604 0.198822H82.4384V16.1037H19.4468V64.2368H70.7191V80.1416H19.4468V145.226H0.193604V0.198822Z" fill="#110F2B"></path>
<path d="M381.147 217.516C378.197 217.516 375.592 217.025 373.331 216.041C371.07 215.009 369.226 213.657 367.801 211.986C366.424 210.266 365.49 208.373 364.999 206.309L371.34 204.908C371.832 206.923 372.913 208.57 374.584 209.848C376.256 211.126 378.394 211.765 380.999 211.765C383.703 211.765 385.743 211.224 387.119 210.143C388.545 209.012 389.257 207.611 389.257 205.94C389.257 204.465 388.667 203.31 387.488 202.474C386.357 201.639 384.882 200.951 383.064 200.41C381.245 199.869 379.303 199.329 377.239 198.788C375.223 198.247 373.306 197.559 371.487 196.723C369.669 195.838 368.194 194.659 367.063 193.184C365.933 191.709 365.368 189.743 365.368 187.285C365.368 185.172 365.982 183.279 367.211 181.608C368.44 179.887 370.16 178.536 372.372 177.552C374.633 176.52 377.263 176.004 380.262 176.004C383.064 176.004 385.472 176.471 387.488 177.405C389.503 178.29 391.125 179.519 392.354 181.092C393.632 182.665 394.492 184.459 394.935 186.474L388.667 188.17C388.225 186.351 387.316 184.828 385.939 183.599C384.563 182.37 382.597 181.755 380.041 181.755C377.534 181.755 375.592 182.271 374.216 183.304C372.888 184.336 372.225 185.639 372.225 187.212C372.225 188.785 372.79 190.013 373.921 190.898C375.051 191.783 376.501 192.52 378.271 193.11C380.09 193.651 382.007 194.192 384.022 194.732C386.087 195.273 388.004 195.961 389.773 196.797C391.592 197.583 393.067 198.714 394.197 200.189C395.328 201.614 395.893 203.531 395.893 205.94C395.893 208.054 395.279 209.995 394.05 211.765C392.87 213.535 391.174 214.935 388.962 215.968C386.75 217 384.145 217.516 381.147 217.516Z" fill="#110F2B"></path>
<path d="M311.201 217V176.52H317.984V185.147C318.574 183.476 319.533 181.952 320.86 180.576C322.236 179.199 323.859 178.093 325.726 177.258C327.594 176.422 329.585 176.004 331.699 176.004C334.894 176.004 337.671 176.717 340.031 178.142C342.39 179.568 344.209 181.559 345.487 184.115C346.765 186.671 347.404 189.694 347.404 193.184V217H340.694V194.88C340.694 190.8 339.662 187.629 337.598 185.368C335.533 183.058 332.829 181.903 329.487 181.903C327.324 181.903 325.358 182.517 323.588 183.746C321.868 184.926 320.491 186.573 319.459 188.686C318.476 190.8 317.984 193.233 317.984 195.986V217H311.201Z" fill="#110F2B"></path>
<path d="M273.532 217.516C269.697 217.516 266.257 216.68 263.209 215.009C260.161 213.289 257.753 210.88 255.983 207.783C254.213 204.637 253.329 200.951 253.329 196.723C253.329 192.496 254.238 188.834 256.057 185.737C257.876 182.64 260.333 180.256 263.43 178.585C266.527 176.864 269.968 176.004 273.753 176.004C277.587 176.004 281.052 176.864 284.149 178.585C287.246 180.256 289.679 182.64 291.449 185.737C293.268 188.834 294.177 192.496 294.177 196.723C294.177 200.951 293.243 204.637 291.375 207.783C289.556 210.88 287.074 213.289 283.928 215.009C280.831 216.68 277.366 217.516 273.532 217.516ZM273.532 211.617C275.842 211.617 278.029 211.077 280.094 209.995C282.208 208.914 283.928 207.267 285.255 205.055C286.583 202.843 287.246 200.066 287.246 196.723C287.246 193.381 286.583 190.628 285.255 188.465C283.977 186.253 282.306 184.606 280.241 183.525C278.177 182.443 275.989 181.903 273.679 181.903C271.32 181.903 269.108 182.443 267.043 183.525C265.028 184.606 263.381 186.253 262.103 188.465C260.874 190.628 260.26 193.381 260.26 196.723C260.26 200.066 260.874 202.843 262.103 205.055C263.332 207.267 264.954 208.914 266.969 209.995C268.985 211.077 271.172 211.617 273.532 211.617Z" fill="#110F2B"></path>
<path d="M228.491 217V176.52H235.274V217H228.491ZM231.883 170.032C230.457 170.032 229.228 169.565 228.196 168.631C227.164 167.697 226.647 166.542 226.647 165.165C226.647 163.74 227.139 162.56 228.122 161.626C229.154 160.692 230.408 160.225 231.883 160.225C233.308 160.225 234.537 160.692 235.569 161.626C236.602 162.56 237.118 163.74 237.118 165.165C237.118 166.542 236.602 167.697 235.569 168.631C234.537 169.565 233.308 170.032 231.883 170.032Z" fill="#110F2B"></path>
<path d="M203.737 217.516C200.935 217.516 198.576 216.582 196.659 214.714C194.791 212.797 193.857 210.29 193.857 207.193V182.124H187V176.52H209.931V182.124H200.714V207.488C200.714 208.766 201.058 209.75 201.746 210.438C202.484 211.126 203.344 211.47 204.327 211.47C205.064 211.47 205.728 211.347 206.318 211.101C206.957 210.806 207.547 210.438 208.087 209.995L211.405 214.641C210.373 215.574 209.218 216.287 207.94 216.779C206.662 217.27 205.261 217.516 203.737 217.516ZM190.612 179.47V176.52C191.645 176.52 192.431 176.25 192.972 175.709C193.562 175.119 193.857 174.284 193.857 173.202V166.419H200.714V172.022C200.714 172.711 200.567 173.374 200.272 174.013C200.026 174.652 199.633 175.193 199.092 175.635C198.551 176.078 197.912 176.373 197.175 176.52L190.612 179.47Z" fill="#110F2B"></path>
<path d="M163.801 213.018V176.52H170.585V217H167.783C166.603 217 165.644 216.631 164.907 215.894C164.17 215.157 163.801 214.198 163.801 213.018ZM150.234 217.516C147.039 217.516 144.237 216.828 141.828 215.452C139.469 214.026 137.626 212.035 136.298 209.479C135.02 206.923 134.381 203.875 134.381 200.336V176.52H141.091V198.714C141.091 202.843 142.123 206.038 144.188 208.299C146.302 210.511 149.005 211.617 152.299 211.617C154.511 211.617 156.477 211.028 158.197 209.848C159.967 208.619 161.343 206.972 162.326 204.908C163.31 202.794 163.801 200.361 163.801 197.608L165.276 199.968C165.227 203.949 164.489 207.243 163.064 209.848C161.687 212.404 159.869 214.321 157.607 215.599C155.395 216.877 152.938 217.516 150.234 217.516Z" fill="#110F2B"></path>
<path d="M105.164 208.816V162.437H111.948V208.226C111.948 209.356 112.267 210.216 112.906 210.806C113.545 211.347 114.307 211.617 115.192 211.617C115.733 211.617 116.249 211.519 116.74 211.322L118.215 216.41C116.986 217.147 115.512 217.516 113.791 217.516C112.415 217.516 111.063 217.221 109.736 216.631C108.409 216.041 107.303 215.107 106.418 213.829C105.582 212.551 105.164 210.88 105.164 208.816Z" fill="#110F2B"></path>
<path d="M66.775 217.516C62.9409 217.516 59.5 216.68 56.4523 215.009C53.4047 213.289 50.996 210.88 49.2264 207.783C47.4568 204.637 46.572 200.951 46.572 196.723C46.572 192.496 47.4814 188.834 49.3002 185.737C51.1189 182.64 53.5767 180.256 56.6735 178.585C59.7703 176.864 63.2112 176.004 66.9962 176.004C70.8304 176.004 74.2959 176.864 77.3927 178.585C80.4895 180.256 82.9227 182.64 84.6923 185.737C86.5111 188.834 87.4205 192.496 87.4205 196.723C87.4205 200.951 86.4865 204.637 84.6186 207.783C82.7998 210.88 80.3175 213.289 77.1715 215.009C74.0747 216.68 70.6092 217.516 66.775 217.516ZM66.775 211.617C69.0854 211.617 71.2728 211.077 73.3373 209.995C75.451 208.914 77.1715 207.267 78.4987 205.055C79.8259 202.843 80.4895 200.066 80.4895 196.723C80.4895 193.381 79.8259 190.628 78.4987 188.465C77.2206 186.253 75.5493 184.606 73.4848 183.525C71.4203 182.443 69.2328 181.903 66.9225 181.903C64.563 181.903 62.351 182.443 60.2865 183.525C58.2711 184.606 56.6244 186.253 55.3463 188.465C54.1174 190.628 53.503 193.381 53.503 196.723C53.503 200.066 54.1174 202.843 55.3463 205.055C56.5752 207.267 58.1974 208.914 60.2127 209.995C62.2281 211.077 64.4156 211.617 66.775 211.617Z" fill="#110F2B"></path>
<path d="M16.1477 217.516C13.1983 217.516 10.5931 217.025 8.3319 216.041C6.07074 215.009 4.2274 213.657 2.80188 211.986C1.42552 210.266 0.491558 208.373 0 206.309L6.34109 204.908C6.83265 206.923 7.91408 208.57 9.58538 209.848C11.2567 211.126 13.3949 211.765 16.0002 211.765C18.7038 211.765 20.7437 211.224 22.1201 210.143C23.5456 209.012 24.2584 207.611 24.2584 205.94C24.2584 204.465 23.6685 203.31 22.4888 202.474C21.3582 201.639 19.8835 200.951 18.0647 200.41C16.246 199.869 14.3043 199.329 12.2398 198.788C10.2244 198.247 8.30733 197.559 6.48856 196.723C4.6698 195.838 3.19513 194.659 2.06454 193.184C0.93396 191.709 0.368668 189.743 0.368668 187.285C0.368668 185.172 0.983116 183.279 2.21201 181.608C3.4409 179.887 5.16136 178.536 7.37337 177.552C9.63453 176.52 12.2644 176.004 15.2629 176.004C18.0647 176.004 20.4734 176.471 22.4888 177.405C24.5042 178.29 26.1263 179.519 27.3552 181.092C28.6332 182.665 29.4935 184.459 29.9359 186.474L23.6685 188.17C23.2261 186.351 22.3167 184.828 20.9404 183.599C19.564 182.37 17.5978 181.755 15.0417 181.755C12.5347 181.755 10.5931 182.271 9.21671 183.304C7.8895 184.336 7.2259 185.639 7.2259 187.212C7.2259 188.785 7.79119 190.013 8.92177 190.898C10.0524 191.783 11.5025 192.52 13.2721 193.11C15.0908 193.651 17.0079 194.192 19.0233 194.732C21.0878 195.273 23.0049 195.961 24.7745 196.797C26.5933 197.583 28.0679 198.714 29.1985 200.189C30.3291 201.614 30.8944 203.531 30.8944 205.94C30.8944 208.054 30.28 209.995 29.0511 211.765C27.8713 213.535 26.1754 214.935 23.9634 215.968C21.7514 217 19.1462 217.516 16.1477 217.516Z" fill="#110F2B"></path>
</svg>